<svg width="21" height="21" viewBox="0 0 21 21" xmlns="http://www.w3.org/2000/svg"><path d="M6.162 16.876c-.325.194-.45.143-.363-.22l.992-4.588c.038-.153.02-.212-.102-.315l-3.517-3.16c-.29-.243-.206-.317.173-.346l4.692-.566c.16-.01.248-.075.31-.22l1.94-4.202c.145-.344.256-.344.402 0l1.968 4.202c.06.145.15.21.31.22l4.677.567c.38.03.476.06.187.303l-3.517 3.203c-.122.103-.14.162-.102.315l1.042 4.58c.088.364-.102.443-.426.25l-4.156-2.294c-.137-.082-.206-.082-.343 0l-4.168 2.272z" stroke="#0AF" stroke-width="7.2%" fill="#fff"/></svg>
